<mxfile host="app.diagrams.net" modified="2023-06-09T08:54:34.611Z" agent="Mozilla/5.0 (Windows NT 10.0; Win64; x64) AppleWebKit/537.36 (KHTML, like Gecko) Chrome/114.0.0.0 Safari/537.36" etag="DbRm9axRrzF9xNFbXz_r" version="21.3.8" type="device">
  <diagram name="Lapa-1" id="0N_vpINlnMyMMWyecOLV">
    <mxGraphModel dx="1522" dy="1270" grid="0" gridSize="10" guides="1" tooltips="1" connect="1" arrows="1" fold="1" page="0" pageScale="1" pageWidth="827" pageHeight="1169" math="0" shadow="0">
      <root>
        <mxCell id="0" />
        <mxCell id="1" parent="0" />
        <mxCell id="Z-L6Cp_g6kr8rGSpHJZa-1" value="Lietotājs" style="shape=umlActor;verticalLabelPosition=bottom;verticalAlign=top;html=1;outlineConnect=0;" vertex="1" parent="1">
          <mxGeometry x="-104" y="-332" width="30" height="60" as="geometry" />
        </mxCell>
        <mxCell id="Z-L6Cp_g6kr8rGSpHJZa-2" value="Atbilžu variantu izvēle" style="ellipse;whiteSpace=wrap;html=1;" vertex="1" parent="1">
          <mxGeometry x="161" y="-325" width="98" height="68" as="geometry" />
        </mxCell>
        <mxCell id="Z-L6Cp_g6kr8rGSpHJZa-3" value="a" style="ellipse;whiteSpace=wrap;html=1;" vertex="1" parent="1">
          <mxGeometry x="233" y="-409" width="73" height="48" as="geometry" />
        </mxCell>
        <mxCell id="Z-L6Cp_g6kr8rGSpHJZa-4" value="a" style="ellipse;whiteSpace=wrap;html=1;" vertex="1" parent="1">
          <mxGeometry x="297" y="-365" width="73" height="48" as="geometry" />
        </mxCell>
        <mxCell id="Z-L6Cp_g6kr8rGSpHJZa-5" value="a" style="ellipse;whiteSpace=wrap;html=1;" vertex="1" parent="1">
          <mxGeometry x="308" y="-296" width="73" height="48" as="geometry" />
        </mxCell>
        <mxCell id="Z-L6Cp_g6kr8rGSpHJZa-6" value="a" style="ellipse;whiteSpace=wrap;html=1;" vertex="1" parent="1">
          <mxGeometry x="241" y="-225" width="73" height="48" as="geometry" />
        </mxCell>
        <mxCell id="Z-L6Cp_g6kr8rGSpHJZa-7" value="Ieslēgt programmu" style="ellipse;whiteSpace=wrap;html=1;" vertex="1" parent="1">
          <mxGeometry x="-36" y="-332" width="94" height="67" as="geometry" />
        </mxCell>
        <mxCell id="Z-L6Cp_g6kr8rGSpHJZa-9" value="sākt testu" style="ellipse;whiteSpace=wrap;html=1;" vertex="1" parent="1">
          <mxGeometry x="72" y="-332" width="75" height="71" as="geometry" />
        </mxCell>
        <mxCell id="Z-L6Cp_g6kr8rGSpHJZa-10" value="Apturēt testu" style="ellipse;whiteSpace=wrap;html=1;" vertex="1" parent="1">
          <mxGeometry x="72" y="-248" width="75" height="71" as="geometry" />
        </mxCell>
        <mxCell id="Z-L6Cp_g6kr8rGSpHJZa-11" value="" style="endArrow=none;html=1;rounded=0;entryX=1;entryY=0.5;entryDx=0;entryDy=0;exitX=0;exitY=0.5;exitDx=0;exitDy=0;" edge="1" parent="1" source="Z-L6Cp_g6kr8rGSpHJZa-9" target="Z-L6Cp_g6kr8rGSpHJZa-7">
          <mxGeometry width="50" height="50" relative="1" as="geometry">
            <mxPoint x="-136" y="-150" as="sourcePoint" />
            <mxPoint x="-86" y="-200" as="targetPoint" />
          </mxGeometry>
        </mxCell>
        <mxCell id="Z-L6Cp_g6kr8rGSpHJZa-12" value="" style="endArrow=none;html=1;rounded=0;entryX=0.5;entryY=1;entryDx=0;entryDy=0;exitX=0.5;exitY=0;exitDx=0;exitDy=0;" edge="1" parent="1" source="Z-L6Cp_g6kr8rGSpHJZa-10" target="Z-L6Cp_g6kr8rGSpHJZa-9">
          <mxGeometry width="50" height="50" relative="1" as="geometry">
            <mxPoint x="-126" y="-140" as="sourcePoint" />
            <mxPoint x="-76" y="-190" as="targetPoint" />
          </mxGeometry>
        </mxCell>
        <mxCell id="Z-L6Cp_g6kr8rGSpHJZa-13" value="" style="endArrow=none;html=1;rounded=0;entryX=1;entryY=0.5;entryDx=0;entryDy=0;exitX=0;exitY=0.5;exitDx=0;exitDy=0;" edge="1" parent="1" source="Z-L6Cp_g6kr8rGSpHJZa-2" target="Z-L6Cp_g6kr8rGSpHJZa-9">
          <mxGeometry width="50" height="50" relative="1" as="geometry">
            <mxPoint x="-116" y="-130" as="sourcePoint" />
            <mxPoint x="-66" y="-180" as="targetPoint" />
          </mxGeometry>
        </mxCell>
        <mxCell id="Z-L6Cp_g6kr8rGSpHJZa-14" value="" style="endArrow=none;html=1;rounded=0;entryX=0;entryY=1;entryDx=0;entryDy=0;exitX=0.587;exitY=0.021;exitDx=0;exitDy=0;exitPerimeter=0;" edge="1" parent="1" source="Z-L6Cp_g6kr8rGSpHJZa-2" target="Z-L6Cp_g6kr8rGSpHJZa-3">
          <mxGeometry width="50" height="50" relative="1" as="geometry">
            <mxPoint x="-106" y="-120" as="sourcePoint" />
            <mxPoint x="-56" y="-170" as="targetPoint" />
          </mxGeometry>
        </mxCell>
        <mxCell id="Z-L6Cp_g6kr8rGSpHJZa-15" value="" style="endArrow=none;html=1;rounded=0;entryX=0.059;entryY=0.762;entryDx=0;entryDy=0;entryPerimeter=0;exitX=0.949;exitY=0.267;exitDx=0;exitDy=0;exitPerimeter=0;" edge="1" parent="1" source="Z-L6Cp_g6kr8rGSpHJZa-2" target="Z-L6Cp_g6kr8rGSpHJZa-4">
          <mxGeometry width="50" height="50" relative="1" as="geometry">
            <mxPoint x="-96" y="-110" as="sourcePoint" />
            <mxPoint x="-46" y="-160" as="targetPoint" />
          </mxGeometry>
        </mxCell>
        <mxCell id="Z-L6Cp_g6kr8rGSpHJZa-16" value="" style="endArrow=none;html=1;rounded=0;entryX=0;entryY=0.5;entryDx=0;entryDy=0;exitX=0.977;exitY=0.737;exitDx=0;exitDy=0;exitPerimeter=0;" edge="1" parent="1" source="Z-L6Cp_g6kr8rGSpHJZa-2" target="Z-L6Cp_g6kr8rGSpHJZa-5">
          <mxGeometry width="50" height="50" relative="1" as="geometry">
            <mxPoint x="-86" y="-100" as="sourcePoint" />
            <mxPoint x="-36" y="-150" as="targetPoint" />
          </mxGeometry>
        </mxCell>
        <mxCell id="Z-L6Cp_g6kr8rGSpHJZa-17" value="" style="endArrow=none;html=1;rounded=0;entryX=0;entryY=0.5;entryDx=0;entryDy=0;" edge="1" parent="1" source="Z-L6Cp_g6kr8rGSpHJZa-2" target="Z-L6Cp_g6kr8rGSpHJZa-6">
          <mxGeometry width="50" height="50" relative="1" as="geometry">
            <mxPoint x="-76" y="-90" as="sourcePoint" />
            <mxPoint x="-26" y="-140" as="targetPoint" />
          </mxGeometry>
        </mxCell>
        <mxCell id="Z-L6Cp_g6kr8rGSpHJZa-18" value="" style="endArrow=none;html=1;rounded=0;entryX=0;entryY=0.5;entryDx=0;entryDy=0;" edge="1" parent="1" source="Z-L6Cp_g6kr8rGSpHJZa-1" target="Z-L6Cp_g6kr8rGSpHJZa-7">
          <mxGeometry width="50" height="50" relative="1" as="geometry">
            <mxPoint x="-66" y="-80" as="sourcePoint" />
            <mxPoint x="-16" y="-130" as="targetPoint" />
          </mxGeometry>
        </mxCell>
      </root>
    </mxGraphModel>
  </diagram>
</mxfile>
